<svg xmlns="http://www.w3.org/2000/svg" viewBox="0 0 471.82 576.75"><g transform="translate(5 4.92)"><g fill="#ff863b"><path d="M53.9 52.7c-5.17.05-10.38.37-15.37 1.8a118.46 118.46 0 00-24.14 9.44c-3.34 1.88-6.7 3.85-9.55 6.45a15.6 15.6 0 00-4.22 7.08c-.65 2.4.5 4.77 1.49 6.9 1.49 3.05 4.56 4.89 7.66 5.97a60.29 60.29 0 0013.77 2.7c13.67.86 27.38.25 41.04-.65 7.16-.55 14.3-1.41 21.44-2.15 8-.9 16.03-1.35 24.03-1.81 5.52-.3 11.04-.56 16.52-.7 8.8-.22 17.6-.36 26.39-.14l12.77.4c2.1.19 4.18-.32 6.27-.52.35-.14 1.93-.02 1.14-.4-1.77-.99-3.46-2.13-5.28-3.03-10.94-4.35-21.94-8.55-32.92-12.8-4.06-1.56-8.05-3.28-12.1-4.85-7.28-2.63-14.81-4.47-22.35-6.22-6.7-1.56-13.35-3.4-20.11-4.71a115.03 115.03 0 00-16.52-2.47c-3.31-.24-6.64-.35-9.97-.3zM405.6 52.03c-6.97.24-13.94.82-20.77 2.26a532.26 532.26 0 00-25.03 5.57 127.6 127.6 0 00-12.11 3.3c-13.36 4.33-26.34 9.7-39.48 14.64-5.02 1.95-10.1 3.74-15.09 5.8l-6.96 3.4c3.96.17 7.9.52 11.86.38 7.82-.11 15.64-.35 23.46-.2 10.39.16 20.69.47 31.05 1.02 9.72.54 19.48 1.04 29.2 1.93 6.16.58 12.28 1.28 18.45 1.92 8.26.59 16.54.8 24.82.74 6.23-.12 12.47-.3 18.66-1.06 3.75-.6 7.51-1.42 11-2.94 2.33-1.17 3.97-3.34 5.26-5.54 1.03-2.07 2.1-4.43 1.45-6.78a14.88 14.88 0 00-4.52-7.18c-2.99-2.53-6.45-4.43-9.87-6.3a131 131 0 00-17.99-7.53c-4.93-1.62-9.97-3.13-15.2-3.33-2.73-.14-5.46-.15-8.2-.1z"/></g><path fill="#fda938" d="M175.85 89.4c-24.01 29.15-20.91 22.69-23.51 25.99s-5.39 6.26-6.7 8.46-5 6.29-7.35 9.51c-2.36 3.22-4.29 6.33-4.29 6.91s-1.72 3.34-3.82 6.14c-2.1 2.8-7.13 10.94-11.16 18.09s-8.87 15.59-10.75 18.75c-1.88 3.16-3.94 5.74-4.6 5.72-.64 0-3.65-1.77-6.67-3.91a352.42 352.42 0 00-13-8.61c-4.13-2.6-11.55-7.3-16.5-10.44L49.22 154.4c-8.36-5.32-9.22-6.15-8.73-8.4.3-1.37.82-6.12 1.16-10.55.48-6.4.27-8.7-1.04-11.24-.93-1.8-2.73-3.45-4.13-3.8a12.33 12.33 0 00-5.05.02c-1.72.43-3.07 1.86-4.11 4.34-1.15 2.75-1.41 5.78-1.02 11.72.3 4.4.82 8.94 1.18 10.08.55 1.71-.33 2.67-5.16 5.67-3.2 1.98-7.8 5.3-10.23 7.4s-5.68 5.8-7.25 8.27C3 170.84 2 173.73 2 176.25c0 2.12.64 5.06 1.41 6.55a29.19 29.19 0 004.75 5.9c1.84 1.75 5.37 4.1 7.84 5.22s5.63 2.04 7 2.05 4.04-.92 5.93-2.07a25.53 25.53 0 005.5-4.65c1.14-1.4 3.1-4.4 4.35-6.65 1.25-2.26 3.2-7.1 4.33-10.78l2.04-6.68 10.18 11.14c5.6 6.13 13.55 14.55 17.67 18.7s10.17 10.62 13.44 14.37c5.49 6.29 5.86 7.01 4.85 9.48-.6 1.47-4.59 10.1-8.85 19.17s-9.98 22.8-12.7 30.5c-2.73 7.7-6.05 17.15-7.4 21s-4.86 16.68-7.81 28.5-5.83 23.75-6.4 26.5-1.5 8.83-2.1 13.5a773.7 773.7 0 01-2.52 17.5c-.78 4.95-1.92 15.75-2.54 24s-1.3 22.43-1.53 31.5c-.24 9.08-.7 20.55-1.02 25.5-.32 4.95-.75 15.08-.95 22.5-.2 7.43-1 29.93-1.76 50-.76 20.08-1.2 36.85-.97 37.28.22.42 7.24.65 15.58.5l15.18-.28.3-4.84c.21-3.16-.23-5.66-1.26-7.23-.86-1.32-2.63-3.1-3.92-3.95s-4.16-1.86-6.36-2.26l-4-.72 3.21-14.26c1.77-7.84 3.47-14.51 3.78-14.82.3-.31 6.11.33 12.9 1.42s18.42 2.73 25.85 3.63 15.67 2.07 18.33 2.59c2.65.52 7.48.94 10.73.94s12.11.65 19.68 1.44c7.57.8 27.03 1.94 43.26 2.56 21.14.8 39.7.81 65.5.06 19.8-.57 41.17-1.52 47.5-2.09s17.57-1.45 25-1.94c7.42-.5 20.7-1.6 29.5-2.45 8.8-.85 17.65-1.73 19.67-1.96l3.66-.4 1.56 8.64c.86 4.75 1.86 10.55 2.21 12.89.63 4.1.56 4.25-2 4.25-1.47 0-4.17.63-6 1.4-1.84.76-4.07 2.44-4.97 3.72-1 1.44-1.63 4.34-1.63 7.6V566h31l.2-30.25c.1-16.64.06-48.02-.1-69.75-.16-21.72-.68-41.28-1.14-43.45s-.62-4.3-.35-4.72c.26-.43-.21-10.65-1.06-22.7-.84-12.06-1.74-22.53-2-23.27-.25-.75-1.39-9.91-2.52-20.36-1.14-10.45-3.23-26.2-4.63-34.98s-3.6-20.27-4.9-25.5-4.36-16.5-6.82-25.02-5.18-17.52-6.05-20-2.9-8.41-4.52-13.19l-2.93-8.68 12.16-11.54c6.69-6.35 18.84-17.74 27-25.31 8.17-7.58 15.2-13.91 15.64-14.07.43-.16 1.06 1.2 1.4 3.04.35 1.83 2.18 6.56 4.08 10.52 1.9 3.97 5.44 9.18 7.9 11.64 2.96 2.96 5.69 4.7 8.1 5.15 2.42.45 5.06.13 7.95-.97 2.38-.91 6.4-3.7 8.94-6.2 2.7-2.66 5.1-6.18 5.78-8.44.97-3.23.88-4.64-.55-8.38-1.1-2.89-3.7-6.3-7.28-9.58a80.43 80.43 0 00-12.93-9.12c-6.9-3.8-7.32-4.21-6.66-6.7.4-1.47.71-5.37.71-8.67s-.58-7.7-1.3-9.76c-.7-2.07-1.95-4.43-2.77-5.25-.82-.82-2.83-1.49-4.47-1.49-1.82 0-3.92.95-5.42 2.46-2 1.99-2.46 3.45-2.46 7.78a47 47 0 001.36 10.3c.75 2.72 1.67 5.7 2.06 6.59.54 1.25-.85 2.49-6.11 5.43-3.75 2.1-9.06 5-11.81 6.47L384 178.47a497.36 497.36 0 00-20.84 11.73c-3.5 2.17-7.48 4.03-8.86 4.12-2.25.16-2.83-.62-5.47-7.32-1.62-4.12-5.45-13.35-8.52-20.5s-8.29-18.17-11.61-24.5c-3.33-6.32-7.24-13.3-8.7-15.5s-3.62-6.02-4.8-8.5c-1.18-2.47-5.2-8.25-8.92-12.84-3.73-4.6 3.99 8.13-17.48-20.53-21.46-28.65-88.94-24.36-112.95 4.78z"/><path fill="#fdd258" d="M221 345.58c-41.5 1.04-80.45 29.98-95.05 68.49-9.07 36.62 16.8 74.85 51.53 86.29 41.15 15.72 92.33 9.34 124.22-22.49 22.84-26.6 30.75-70.03 8.16-99.18-18.49-24.42-50.17-34.76-79.95-33.05-2.97 0-5.94 0-8.91-.06z"/><path fill="#161f5a" d="M202.89.08c-1.46-.11-2.93-.13-4.37.05-5 .64-9.53 1.1-14.67 3.63a61.37 61.37 0 00-10.6 6.76c-2.34 2-4.25 4.43-4.25 5.4 0 .96.3 2.05.67 2.41.36.37 1.26.67 1.99.67s3.46-1.64 6.08-3.65 7.24-4.8 10.26-6.2c4.45-2.04 7.02-2.52 13.5-2.5 6 .01 9.21.55 12.88 2.18 2.68 1.2 5.67 2.17 6.64 2.17s2.05-.74 2.4-1.64c.35-.93-.11-2.47-1.07-3.53-.94-1.03-4.81-2.82-8.6-3.98-4.06-1.23-7.2-1.5-10.86-1.77zM270 1.25c-5.34-.04-11.28.61-15.79 2.64-2.9 1.32-5.66 3.12-6.11 4-.46.89-.63 2.17-.38 2.86s1.2 1.25 2.11 1.25c.92 0 4.04-.9 6.93-2 3.73-1.42 7.68-2 13.6-2 7.22 0 9.1.39 14.23 2.96 3.25 1.63 7.49 4.31 9.41 5.96s4.23 3.02 5.13 3.04a4 4 0 002.76-1.33c.63-.76.9-2 .6-2.75-.3-.76-2.9-3.13-5.77-5.26A76.65 76.65 0 00286 4.14c-4.82-2.28-10.58-2.86-16-2.9zM407.85 54c8.92 0 11.52.43 20.92 3.49 5.9 1.92 14.55 5.67 19.23 8.33 6.47 3.69 8.93 5.7 10.3 8.43 1.62 3.25 1.65 3.93.33 7.1-.8 1.92-2.68 4.3-4.17 5.27-1.49.97-6.14 2.33-10.34 3.02s-14.6 1.21-23.12 1.16-18.65-.46-22.5-.92a962.08 962.08 0 00-17.5-1.84c-5.78-.55-20.85-1.49-33.5-2.1-12.65-.6-29.86-.94-38.25-.76-8.39.17-15.25.27-15.25.21 0-.06 3.94-1.58 8.75-3.38 4.81-1.8 16.62-6.33 26.25-10.05 9.62-3.72 21.1-7.66 25.5-8.75s12.05-2.92 17-4.07a422.57 422.57 0 0117.58-3.61c4.72-.84 13.16-1.53 18.77-1.53zm-351.42.68c5.95.05 12.39.61 17.57 1.57 5.22.96 11.97 2.39 15 3.17 3.02.78 10.67 2.63 17 4.11s14.42 3.94 18 5.45c3.57 1.51 10.77 4.38 16 6.37s13.55 5.2 18.5 7.15l9 3.54-14.5-.45a568.5 568.5 0 00-34.5.41c-11 .48-24.5 1.37-30 1.97-5.5.6-14.28 1.52-19.5 2.04-5.22.53-16.25 1.14-24.5 1.36-8.25.22-18.57 0-22.94-.52-4.36-.5-9.89-1.79-12.28-2.84-3.22-1.43-4.74-2.87-5.86-5.55-1.38-3.3-1.36-3.93.29-7.29 1.34-2.75 3.8-4.86 9.79-8.43 4.52-2.7 12.75-6.3 18.91-8.31 9.37-3.05 12.41-3.57 21.5-3.74.83-.01 1.67-.02 2.52-.01zm232.54 33.03c.43 0 2.48 2.34 3.32 3.62.84 1.28 4.65 6.01 8.46 10.52 3.82 4.5 8.47 10.92 10.35 14.25 1.87 3.33 4.82 8.19 6.55 10.8 1.73 2.62 6.23 10.8 10 18.2 3.77 7.4 8.74 17.93 11.04 23.42 2.31 5.49 5.8 14 7.74 18.91 1.95 4.91 3.44 9.03 3.3 9.15-.12.11-3.27 1.87-6.98 3.9S336 204.6 336 205.1s.34.9.75.9 3.45-1.6 6.75-3.52c3.3-1.93 6.87-3.8 7.94-4.16a71.66 71.66 0 007-3.3c2.78-1.47 8.43-4.58 12.56-6.93s11.77-6.54 17-9.32 12.2-6.5 15.5-8.28 8.86-4.86 12.35-6.85c3.49-2 6.8-3.63 7.36-3.63.56 0 .77-1.01.46-2.25l-2.1-8.25a52.13 52.13 0 01-1.55-10.25c-.02-2.93.6-4.87 1.98-6.25 1.1-1.1 2.87-2 3.93-2s2.62.69 3.46 1.53 1.86 3.2 2.25 5.25.75 5.3.78 7.22-.31 5.75-.75 8.5l-.8 5.01 6.32 3.12c3.47 1.72 8.77 4.98 11.79 7.25s6.5 5.81 7.74 7.87a16.37 16.37 0 012.27 7.88l.01 4.13-6.93-7.11c-3.82-3.91-7.27-6.79-7.67-6.38-.4.4 2.27 3.84 5.93 7.63 3.67 3.8 6.67 7.36 6.67 7.93 0 .56-1.17 2.4-2.6 4.1l-2.6 3.1-2.74-3.77c-1.51-2.07-4.83-5.67-7.38-8.01s-5.1-4.25-5.66-4.25-1.02.18-1.02.4c0 .21 3.15 3.54 7 7.4s7 7.51 7 8.15-1.66 1.85-3.7 2.7c-2.96 1.24-4.44 1.32-7.4.44-2.06-.62-5.25-2.84-7.26-5.06a48.45 48.45 0 01-6.02-8.79 73.54 73.54 0 01-4.1-10.51c-.9-3.13-2.09-5.96-2.62-6.3-.53-.32-4.44 2.73-8.68 6.78s-10.87 10.35-14.72 14-8.57 7.9-10.5 9.46c-1.92 1.56-9.73 8.9-17.34 16.3s-13.32 13.65-12.67 13.86c.64.22 2.41-.8 3.92-2.25l2.76-2.64 2.73 9.28c1.5 5.1 3.36 10.73 4.14 12.5.77 1.78 3.85 11.9 6.84 22.5s6.13 22.43 6.97 26.28c.85 3.85 2.44 12.85 3.55 20 1.12 7.15 2.74 19.3 3.62 27 .88 7.7 2.3 18.95 3.16 25s1.95 17.98 2.41 26.5c.46 8.53 1.1 19.77 1.41 25s.9 23.3 1.29 40.15c.39 16.85.4 38.23.01 47.5-.38 9.27-.57 25.76-.42 36.65l.26 19.8-5.07-.3-5.07-.3-.5-3.92c-.27-2.16-1.13-4.13-1.9-4.38-1.1-.37-1.28.5-.87 4.17l.52 4.63h-3.37c-3.17 0-3.38-.2-3.38-3.38 0-1.89-.71-3.97-1.62-4.72-1.46-1.2-1.58-.88-1.24 3.38.34 4.34.2 4.72-1.88 4.72-1.96 0-2.26-.52-2.26-3.86 0-2.82.7-4.56 2.57-6.44a13.5 13.5 0 015.5-3.22c1.61-.35 4.28-.34 5.93.02 2.26.5 2.88.33 2.51-.67-.27-.73-1.63-7.58-3.03-15.23s-2.73-14.2-2.96-14.56c-.22-.37-3.02-.3-6.21.13-3.2.43-13.68 1.53-23.31 2.43-9.62.9-23.12 2.01-30 2.46-6.87.45-14.97 1.05-18 1.34-3.02.3-10 .89-15.5 1.32-5.5.43-35.42.73-66.5.66-36.03-.07-60.3-.54-67-1.3-5.77-.64-16.35-1.59-23.5-2.1s-17.72-1.6-23.5-2.43-16.35-2.22-23.5-3.07c-7.15-.85-14.3-1.98-15.9-2.51-1.6-.54-5.06-.97-7.71-.97-4.72 0-4.83.07-5.81 3.75a672.45 672.45 0 00-4.04 17.7C48.37 545.1 47 551.48 47 551.6c0 .12 1.8-.03 3.98-.32 2.26-.3 5.34.03 7.12.76a8.67 8.67 0 014.52 4.6c.76 1.81 1.38 4.21 1.38 5.33 0 1.5-.65 2.03-2.51 2.03-2.39 0-2.48-.21-1.85-4.13.52-3.3.37-4.04-.74-3.68-.78.26-1.54 2.1-1.71 4.14-.3 3.48-.5 3.67-3.84 3.67h-3.53l.68-4c.55-3.27.39-4-.91-4-1.01 0-1.59.88-1.59 2.42 0 1.33-.27 3.13-.6 4-.45 1.15-1.98 1.58-5.66 1.58h-5.05l.8-18.25c.43-10.04.92-23.65 1.07-30.25.16-6.6.84-22.8 1.5-36 .67-13.2 1.37-32.55 1.56-43 .18-10.45.8-23.7 1.36-29.42.56-5.74 1.02-13.39 1.02-17.01s.45-8.15 1.01-10.08c.56-1.92 1.44-7.09 1.97-11.49s1.63-12.27 2.46-17.5c.83-5.22 3.76-18.5 6.52-29.5s5.99-23.15 7.18-27 3.17-9.47 4.4-12.5 3.7-10 5.5-15.5 6.4-16.75 10.23-25 7.84-16.74 8.92-18.87l1.98-3.87 3.8 3.7c2.09 2.05 4.06 3.3 4.38 2.78.32-.52-.58-2.03-2-3.35-1.43-1.31-6.3-6.67-10.83-11.9-4.52-5.24-11.78-13.11-16.12-17.5S61.22 179.84 56 174.16s-9.65-10.75-9.83-11.25c-.19-.5-.92-.92-1.62-.92-.78 0-1.75 2.36-2.45 5.9a57.79 57.79 0 01-4.25 12.1c-1.7 3.4-4.57 7.65-6.37 9.46-1.8 1.8-4.47 3.57-5.92 3.93-1.45.37-4.42.19-6.6-.4l-3.97-1.07 1.63-3.15c.9-1.74 3.82-5.47 6.5-8.3 2.69-2.84 4.88-5.78 4.88-6.53s-2.28.87-5.06 3.6-6 6.54-7.17 8.46-2.27 3.7-2.45 3.93c-.19.23-1.69-.86-3.33-2.44C8.35 185.91 7 184.1 7 183.47s2.74-4.42 6.08-8.4c3.34-3.99 5.77-7.54 5.4-7.9-.39-.37-3.12 2.03-6.1 5.33-2.96 3.3-5.65 6.8-5.96 7.76-.31.97-.98 1.51-1.5 1.2-.5-.32-.92-2.1-.92-3.95 0-1.86.44-4.53.97-5.94.54-1.4 2.86-4.6 5.16-7.1 2.3-2.5 7.45-6.72 11.45-9.4 3.99-2.66 7.73-5.01 8.32-5.2.7-.25.54-2.03-.5-5.37-1.03-3.32-1.4-7.42-1.13-12.21.23-3.97 1-7.9 1.7-8.75.7-.85 2.54-1.54 4.1-1.54 1.78 0 3.39.82 4.37 2.22.96 1.37 1.56 4.37 1.56 7.8 0 3.05-.67 8.15-1.5 11.32s-1.5 5.96-1.5 6.2.45.46 1 .46c.56 0 5.4 2.85 10.76 6.34 5.36 3.5 14.02 9.06 19.24 12.37 5.23 3.3 11.64 7.32 14.26 8.9 2.62 1.6 7.12 4.62 10 6.73 2.88 2.1 7.94 5.19 11.24 6.85s6.9 3.8 8 4.75c1.1.95 3.75 2.72 5.88 3.93 2.13 1.22 4.09 2 4.35 1.74.26-.26.17-.96-.2-1.55s-2.09-1.81-3.84-2.7a38.6 38.6 0 01-5.9-3.9c-1.5-1.25-3.25-2.45-3.9-2.66-.78-.26-.34-1.72 1.3-4.35 1.37-2.17 5.33-9.12 8.8-15.45 3.48-6.32 9.11-15.77 12.53-21 3.41-5.22 7.06-10.9 8.1-12.6 1.03-1.7 4.84-7.56 8.46-13 3.62-5.45 11.67-15.36 17.9-22.03l11.78-12.5-4.52-5.06-7.68-3c-3.88-1.53-14.71-5.76-24.06-9.4s-21.27-7.92-26.5-9.53-12.42-3.56-16-4.34c-3.57-.78-9.65-2.08-13.5-2.9S73.68 53.47 69 52.6c-6.76-1.24-10.65-1.37-19-.63-7 .62-13.37 1.91-19.1 3.88a146.98 146.98 0 00-16.8 7.22c-4.51 2.35-9.53 5.79-11.15 7.64C.88 73.06 0 75.1 0 77.57c0 1.93.86 5.19 1.9 7.24a12.78 12.78 0 005.32 5.36c1.88.9 6.84 2.18 11.01 2.85 5.25.85 14.33 1.04 29.43.63 12.01-.32 27.69-1.25 34.84-2.07 7.15-.82 24.48-1.98 38.5-2.58 15.11-.65 31.14-.78 39.35-.3l13.85.8-8.7 9c-4.77 4.95-10.81 11.7-13.41 15s-5.8 7.8-7.12 10-4.32 6.64-6.68 9.86c-2.36 3.22-4.29 6.33-4.29 6.91s-1.72 3.34-3.82 6.14c-2.1 2.8-7.13 10.94-11.16 18.09s-8.87 15.59-10.75 18.75c-1.88 3.16-3.94 5.74-4.6 5.72-.64 0-3.64-1.77-6.67-3.91a352.42 352.42 0 00-13-8.61L67.5 166 49.22 154.4c-8.36-5.32-9.22-6.15-8.73-8.4.3-1.38.82-6.12 1.16-10.55.48-6.4.27-8.7-1.04-11.24-.93-1.8-2.73-3.45-4.13-3.8a12.33 12.33 0 00-5.05.02c-1.72.43-3.07 1.86-4.11 4.34-1.15 2.75-1.41 5.78-1.02 11.72.3 4.4.82 8.94 1.18 10.08.55 1.71-.33 2.67-5.16 5.67a98.8 98.8 0 00-10.23 7.4 45.08 45.08 0 00-7.25 8.27C3 170.84 2 173.73 2 176.25c0 2.12.64 5.06 1.41 6.55a29.19 29.19 0 004.75 5.9 33.56 33.56 0 007.84 5.22c2.48 1.12 5.63 2.04 7 2.05s4.04-.92 5.93-2.07a25.53 25.53 0 005.5-4.65c1.14-1.4 3.1-4.4 4.35-6.65 1.25-2.26 3.2-7.1 4.33-10.78l2.04-6.68 10.18 11.14A767.61 767.61 0 0073 194.98a373.95 373.95 0 0113.44 14.37c5.49 6.29 5.86 7 4.85 9.48-.6 1.47-4.59 10.1-8.85 19.17s-9.98 22.8-12.7 30.5c-2.73 7.7-6.05 17.15-7.4 21s-4.86 16.68-7.81 28.5-5.83 23.75-6.4 26.5-1.5 8.82-2.1 13.5c-.61 4.67-1.74 12.55-2.52 17.5-.78 4.95-1.92 15.75-2.54 24s-1.3 22.43-1.53 31.5c-.24 9.07-.7 20.55-1.02 25.5-.32 4.95-.75 15.07-.95 22.5-.2 7.42-1 29.93-1.76 50s-1.2 36.85-.97 37.28c.22.42 7.24.65 15.58.5l15.18-.28.3-4.84c.21-3.16-.23-5.66-1.26-7.23a16.32 16.32 0 00-3.92-3.95c-1.3-.84-4.16-1.86-6.36-2.26l-4-.72 3.21-14.26c1.77-7.84 3.47-14.51 3.78-14.82.3-.31 6.11.33 12.9 1.42 6.8 1.1 18.43 2.73 25.85 3.63s15.67 2.07 18.33 2.59c2.65.52 7.48.94 10.73.94s12.11.65 19.68 1.44c7.57.8 27.04 1.94 43.26 2.56 21.14.8 39.7.81 65.5.06 19.8-.57 41.18-1.52 47.5-2.09s17.58-1.45 25-1.94 20.7-1.6 29.5-2.45c8.8-.85 17.65-1.73 19.67-1.96l3.66-.4 1.56 8.64c.86 4.75 1.86 10.55 2.21 12.89.63 4.1.56 4.25-2 4.25-1.47 0-4.17.63-6 1.4-1.84.76-4.07 2.44-4.97 3.72-1 1.44-1.63 4.34-1.63 7.6V566h31l.2-30.25c.1-16.64.06-48.02-.1-69.75-.16-21.73-.68-41.27-1.14-43.45s-.62-4.3-.35-4.72c.26-.43-.21-10.65-1.06-22.7-.84-12.06-1.74-22.53-2-23.27-.25-.75-1.39-9.91-2.52-20.36a863.02 863.02 0 00-4.63-34.98 398 398 0 00-4.9-25.5c-1.29-5.24-4.36-16.5-6.82-25.02s-5.18-17.52-6.05-20-2.9-8.4-4.52-13.19l-2.93-8.68 12.16-11.54c6.69-6.35 18.84-17.74 27-25.31 8.17-7.58 15.2-13.91 15.64-14.07.43-.16 1.06 1.2 1.4 3.04.35 1.83 2.18 6.56 4.08 10.52 1.9 3.97 5.44 9.18 7.9 11.64 2.96 2.96 5.69 4.7 8.1 5.15 2.42.45 5.06.13 7.95-.97 2.38-.91 6.4-3.7 8.94-6.2 2.7-2.66 5.1-6.18 5.78-8.44.97-3.23.88-4.64-.55-8.38-1.1-2.89-3.7-6.31-7.28-9.58a80.43 80.43 0 00-12.93-9.12c-6.9-3.8-7.32-4.21-6.66-6.7.4-1.47.71-5.37.71-8.67s-.58-7.7-1.3-9.76c-.7-2.07-1.95-4.43-2.77-5.25-.82-.82-2.83-1.49-4.47-1.49-1.82 0-3.92.95-5.42 2.46-2 1.99-2.46 3.45-2.46 7.78a47 47 0 001.36 10.3c.75 2.72 1.67 5.7 2.06 6.58.54 1.26-.85 2.5-6.11 5.44-3.75 2.1-9.06 5-11.81 6.47L384 178.47a497.36 497.36 0 00-20.84 11.73c-3.5 2.17-7.48 4.03-8.86 4.12-2.25.16-2.83-.62-5.47-7.32-1.62-4.13-5.45-13.35-8.52-20.5s-8.29-18.18-11.61-24.5c-3.33-6.33-7.24-13.3-8.7-15.5s-3.62-6.03-4.8-8.5c-1.18-2.48-5.2-8.25-8.92-12.84a653.05 653.05 0 01-10.12-12.75L292.8 88l19.85.05c10.91.02 28.61.49 39.34 1.03 10.72.54 23.55 1.39 28.5 1.88 4.95.5 17.97 1.46 28.93 2.15 15.4.97 21.99.98 29 .08 4.99-.64 10.84-1.66 13-2.27 2.15-.61 5.15-2.35 6.67-3.86a14.48 14.48 0 003.44-6.4c.37-2 .38-4.84.01-6.3-.36-1.47-2.08-3.99-3.81-5.6-1.73-1.62-6.6-4.68-10.8-6.8s-11.67-5.23-16.55-6.92c-6.92-2.4-11.33-3.21-19.9-3.7-8.34-.47-13.3-.2-20.5 1.12-5.22.96-13.32 2.62-17.99 3.7s-12.33 2.89-17 4.04-16.83 5.35-27 9.31a711.7 711.7 0 01-24 8.99 74.48 74.48 0 00-8.14 3.1l-3.49 1.6z"/><g><g stroke="#161f5a" stroke-width="2"><path fill="#fff" d="M290.69 196.86c-1.55.38-7.97 2-13.43 3.11 0 0-8.26 1.69-12.42 2.4-4.48.75-6.96 1.18-13.48 1.95-6.52.78-9.67 1.19-14.53 1.44-1.61.09-3.22.05-4.83.04-2.08-.02-6.25-.14-6.25-.14-3.44-.07-9.85-.54-14.25-1.03s-9.3-1.25-10.9-1.66c0 0-3.17-.7-4.76-1-4.58-.9-8.58-1.31-13.77-2.5l-8.5-1.94a81.2 81.2 0 009.66 7.79 108.9 108.9 0 0014.55 7.85 117.4 117.4 0 0016.44 4.98c7.41 1.61 11.6 1.93 20.24 1.57 6-.25 13.91-1.17 17.35-2 3.52-.84 8.93-2.5 11.9-3.66a110.4 110.4 0 0011.95-5.86 98.25 98.25 0 0011.1-7.54c1-.83 2.47-2.3 3.93-3.8zM167.38 125.55c-2.79 0-4.66.1-6.02.4-1.36.28-2.22.97-3.16 1.71-.54.43-1.43 1.54-2.26 2.9s-1.65 2.98-2.23 4.5a55.56 55.56 0 00-1.98 6.57c.37.05 3.5.44 6.32 1.2 3 .8 11.53 2.34 18.95 3.42s21.38 2.71 31 3.62c5.97.57 11.38.93 16.4 1.1s9.67.15 14.1-.06c7.15-.34 20.88-1.5 30.5-2.58s21.33-2.68 26-3.55c4.55-.85 14.22-3.47 16.45-4.15-.82-3.22-2-6.98-2.68-8.28a21.71 21.71 0 00-3.52-4.73c-.81-.75-1.5-1.42-2.76-1.7-1.26-.27-3.09-.37-5.93-.36-6.48.05-11.67 1.35-17.38 2.65a326.47 326.47 0 00-23.43 6.65c-12.18 4-13.94 4.88-24.25 4.84-10.13-.04-12.25-.98-23.75-4.75a371.58 371.58 0 00-22.94-6.62c-6.14-1.48-13.36-2.78-17.43-2.78z"/><g fill="none"><path d="M187.03 200.37l-.81 6.7M212.68 204.71l-.2 12.98M249.14 204.54l.03 13.6M274.98 200.4l.35 7.96M299.6 125.75l2.63 17.2M288.84 126.3l2 19.05M269.67 130.91l1.5 17.13M246.53 137.68l-.02 12.55M215.6 137.34l-.18 13.03M192.12 130.44l-1.06 17.45M173.37 126.18l-2.09 19.04M162.72 125.85l-2.99 17.28"/></g></g><path fill="#80807f" stroke="#161f5a" stroke-width="2" d="M311.45 140.63c-2.23.68-11.9 3.3-16.45 4.15-4.67.87-16.38 2.47-26 3.55s-23.35 2.24-30.5 2.58c-4.43.21-9.07.23-14.1.06-5.02-.17-10.43-.53-16.4-1.1-9.63-.9-23.57-2.54-31-3.62s-15.95-2.62-18.95-3.43a51.94 51.94 0 00-6.32-1.19 44.07 44.07 0 00-1.19 7.45c-.46 7.6.3 9.14 2.96 16.88a96.3 96.3 0 007.62 16.05c2.55 4.09 6.95 9.98 9.67 12.95.65.72 1.83 1.7 2.77 2.57l8.51 1.94c5.19 1.19 9.2 1.6 13.77 2.5 1.6.3 4.76 1 4.76 1 1.6.4 6.5 1.16 10.9 1.66a190.18 190.18 0 0020.5 1.17c1.6 0 3.22.05 4.83-.04 4.86-.25 8-.66 14.53-1.44 6.52-.77 9-1.2 13.48-1.96 4.16-.7 12.42-2.39 12.42-2.39 5.46-1.11 11.88-2.73 13.43-3.11a96.74 96.74 0 006.11-6.83 102.49 102.49 0 009.44-14.82c2.19-4.38 4.68-10.73 5.47-13.87.8-3.2 1.25-7.74 1.24-9.8 0-2.06-.45-6.75-1.26-10.15-.06-.29-.17-.46-.24-.76z"/><path fill="#cd4f33" stroke="#161f5a" stroke-linejoin="bevel" stroke-width="1.75" d="M200.6 202.97c1.6.41 6.5 1.16 10.9 1.66a190.18 190.18 0 0020.5 1.17c1.6 0 3.22.05 4.83-.04 4.86-.25 8-.66 14.53-1.44 6.52-.77 9-1.2 13.7-1.92.11-.02-.18-1.1-.39-1.67-1.03-2.77-5.95-7.56-11.85-10.23s-7.54-2.69-11.68-2.71c-4.34-.02-6.49 1.29-9.4 1.26-3.16.04-2.45-1.57-9.18-1.27-6.63.29-10.04 1.1-13.75 2.73s-6.81 4.4-8.78 6.47-3.38 5.15-3.38 5.15c1.7.35 3.95.84 3.95.84z"/><path fill="#161f5a" d="M231.44 193.02l.5 12.64 1.98-.08s-.55-10.18-2.48-12.56z"/></g><g fill="#fff"><g stroke="#161f5a"><path fill="none" stroke-width="6.5" d="M240.26 68.02a9.19 9.19 0 00-8.4-5.47h0a1.08 1.08 0 000 0h0a9.19 9.19 0 00-8.4 5.5"/><circle cx="266.96" cy="67.63" r="26.75" stroke-width="7.01"/><path stroke-width="7.01" d="M196.88 40.71c-7.04 0-14.04 2.91-19.02 7.9a27.24 27.24 0 00-7.88 19.02c0 7.04 2.9 14.05 7.89 19.03a27.24 27.24 0 0019.03 7.88c7.04 0 14.05-2.9 19.03-7.88s7.88-11.99 7.88-19.03-2.9-14.05-7.88-19.03a27.24 27.24 0 00-19.05-7.89 3.16 3.16 0 000 0z" transform="matrix(.99438 0 0 .99438 1 .27)"/></g><g fill="#161f5a"><circle cx="266.23" cy="66.31" r="4.75"/><circle cx="198.46" cy="66.33" r="4.75"/></g></g><ellipse cx="229.47" cy="94.72" rx="43" ry="17.69"/></g></svg>