<?xml version="1.0" encoding="UTF-8" standalone="no"?>
<svg
   xmlns:dc="http://purl.org/dc/elements/1.1/"
   xmlns:cc="http://creativecommons.org/ns#"
   xmlns:rdf="http://www.w3.org/1999/02/22-rdf-syntax-ns#"
   xmlns:svg="http://www.w3.org/2000/svg"
   xmlns="http://www.w3.org/2000/svg"
   xmlns:sodipodi="http://sodipodi.sourceforge.net/DTD/sodipodi-0.dtd"
   xmlns:inkscape="http://www.inkscape.org/namespaces/inkscape"
   version="1.1"
   id="svg2"
   width="471.82367"
   height="576.74658"
   viewBox="0 0 471.82367 576.74658"
   sodipodi:docname="ruffman.svg"
   inkscape:version="1.0.1 (3bc2e813f5, 2020-09-07)">
  <metadata
     id="metadata8">
    <rdf:RDF>
      <cc:Work
         rdf:about="">
        <dc:format>image/svg+xml</dc:format>
        <dc:type
           rdf:resource="http://purl.org/dc/dcmitype/StillImage" />
        <dc:title></dc:title>
      </cc:Work>
    </rdf:RDF>
  </metadata>
  <defs
     id="defs6">
    <inkscape:path-effect
       effect="bspline"
       id="path-effect933"
       is_visible="true"
       lpeversion="1"
       weight="33.333333"
       steps="2"
       helper_size="0"
       apply_no_weight="true"
       apply_with_weight="true"
       only_selected="false" />
  </defs>
  <sodipodi:namedview
     pagecolor="#ffffff"
     bordercolor="#666666"
     borderopacity="1"
     objecttolerance="10"
     gridtolerance="10"
     guidetolerance="10"
     inkscape:pageopacity="0"
     inkscape:pageshadow="2"
     inkscape:window-width="1920"
     inkscape:window-height="1200"
     id="namedview4"
     showgrid="false"
     inkscape:zoom="1"
     inkscape:cx="28.795925"
     inkscape:cy="366.14393"
     inkscape:window-x="0"
     inkscape:window-y="0"
     inkscape:window-maximized="0"
     inkscape:current-layer="g10"
     lock-margins="true"
     fit-margin-top="5"
     fit-margin-left="5"
     fit-margin-right="5"
     fit-margin-bottom="5"
     inkscape:document-rotation="0" />
  <g
     inkscape:groupmode="layer"
     inkscape:label="Image"
     id="g10"
     transform="translate(5,4.9236342)"
     style="display:inline">
    <g
       id="g877"
       style="display:inline;opacity:0.997"
       inkscape:label="ruffman"
       inkscape:groupmode="layer">
      <g
         id="g875"
         inkscape:label="body"
         style="display:inline">
        <g
           id="g1868"
           style="display:inline"
           inkscape:label="fills">
          <g
             id="g1815"
             inkscape:label="ears"
             style="display:inline">
            <path
               id="path1095"
               style="display:inline;fill:#ff863b;fill-opacity:1"
               d="m 53.890625,52.691406 c -5.161677,0.0573 -10.369011,0.38179 -15.358297,1.800361 -8.353956,2.270774 -16.478488,5.409463 -24.13975,9.445733 -3.344623,1.886915 -6.7031285,3.850227 -9.5500662,6.452673 -2.0660893,1.882561 -3.4190885,4.432018 -4.22103095,7.081738 -0.65079338,2.402338 0.49519455,4.77053 1.48594105,6.901136 1.4920129,3.04291 4.563776,4.885158 7.6611222,5.963717 4.4589049,1.43775 9.0986499,2.337027 13.7689539,2.703107 13.672852,0.860283 27.387263,0.254004 41.040927,-0.652572 7.161793,-0.552114 14.295601,-1.410197 21.440362,-2.142911 8.002635,-0.89652 16.026683,-1.351666 24.031993,-1.818607 5.5211,-0.304064 11.03682,-0.55781 16.52062,-0.700195 8.79201,-0.219473 17.59026,-0.355994 26.38368,-0.137695 4.18818,0.128744 8.52913,0.268366 12.77607,0.401295 2.10723,0.191089 4.18133,-0.321891 6.27015,-0.522216 0.35287,-0.135979 1.93007,-0.01947 1.14232,-0.390677 -1.7693,-0.996309 -3.46854,-2.136338 -5.28342,-3.03915 -10.94364,-4.344512 -21.94349,-8.544734 -32.92236,-12.798925 -4.05505,-1.553946 -8.04445,-3.274154 -12.08957,-4.850653 -7.28462,-2.63095 -14.81916,-4.471449 -22.3554,-6.216525 -6.708208,-1.563423 -13.352129,-3.400453 -20.117404,-4.711658 -5.447103,-1.158328 -10.947814,-2.11327 -16.51175,-2.47125 -3.317975,-0.239918 -6.646379,-0.350252 -9.973091,-0.296726 z" />
            <path
               id="path1093"
               style="display:inline;fill:#ff863b;fill-opacity:1"
               d="m 405.5957,52.03125 c -6.96237,0.237458 -13.93669,0.820145 -20.76323,2.256487 -8.39839,1.613497 -16.72691,3.557241 -25.03598,5.572988 -4.07279,0.964391 -8.14803,1.94101 -12.11078,3.302338 -13.3549,4.331298 -26.34054,9.689437 -39.47225,14.636954 -5.02366,1.949438 -10.11212,3.740587 -15.09237,5.795686 -2.31901,1.134766 -4.63802,2.269531 -6.95703,3.404297 3.95246,0.166046 7.90148,0.522542 11.86039,0.378151 7.81949,-0.113013 15.63883,-0.351292 23.4597,-0.194463 10.38366,0.151459 20.68102,0.466713 31.04979,1.019873 9.72017,0.534499 19.47436,1.040379 29.18789,1.921821 6.17276,0.581677 12.28711,1.284936 18.45604,1.928693 8.25956,0.584179 16.54539,0.791855 24.82476,0.730965 6.22739,-0.114996 12.46903,-0.301368 18.65684,-1.05164 3.75157,-0.597526 7.51145,-1.428102 11.00655,-2.948244 2.32794,-1.165008 3.9685,-3.339925 5.258,-5.538791 1.0229,-2.070077 2.08746,-4.423042 1.44444,-6.772595 -0.82958,-2.732986 -2.30054,-5.334777 -4.51684,-7.181212 -2.99117,-2.528512 -6.44754,-4.430516 -9.87115,-6.30037 -5.8051,-2.932918 -11.81061,-5.492903 -17.98861,-7.531381 -4.93411,-1.615979 -9.97561,-3.134598 -15.20088,-3.33482 -2.72875,-0.139493 -5.46383,-0.145304 -8.19528,-0.09474 z" />
          </g>
          <path
             id="path885"
             style="display:inline;fill:#fda938"
             d="m 180.84957,94.330976 c -24.0128,29.138144 -20.91123,22.678464 -23.51196,25.978464 -2.60073,3.3 -5.38405,6.25936 -6.69967,8.45936 -1.31562,2.2 -4.99268,6.29139 -7.35083,9.5144 -2.35815,3.223 -4.28711,6.33314 -4.28711,6.91016 0,0.57702 -1.72134,3.33869 -3.82422,6.13867 -2.10287,2.79998 -7.12254,10.9418 -11.15625,18.0918 -4.03371,7.15 -8.87177,15.5875 -10.75,18.75 -1.87824,3.1625 -3.94413,5.73851 -4.5918,5.72461 -0.64768,-0.0139 -3.65273,-1.77705 -6.67773,-3.91797 -3.025,-2.14091 -8.875,-6.01496 -13,-8.60938 -4.125,-2.59441 -11.55,-7.29098 -16.5,-10.43554 -4.95,-3.14455 -13.174772,-8.37154 -18.277344,-11.61524 -8.359925,-5.31438 -9.223221,-6.14371 -8.730468,-8.39648 0.300755,-1.375 0.821233,-6.12268 1.15625,-10.55078 0.484225,-6.40026 0.271974,-8.70484 -1.03711,-11.23633 -0.928866,-1.79623 -2.729003,-3.45529 -4.128906,-3.80664 -1.364996,-0.34259 -3.637584,-0.33272 -5.048828,0.0215 -1.719564,0.43159 -3.076538,1.86443 -4.113282,4.34571 -1.147279,2.74583 -1.410611,5.77312 -1.019531,11.71484 0.290035,4.40654 0.821948,8.94203 1.181641,10.07812 0.543371,1.71626 -0.329769,2.67383 -5.164063,5.66993 -3.20013,1.98331 -7.80116,5.31196 -10.224609,7.39648 -2.423449,2.08452 -5.685949,5.80913 -7.25,8.27539 C 7.9863881,175.76078 7,178.65279 7,181.16992 c 0,2.11963 0.6359881,5.06755 1.4140625,6.55274 0.7780745,1.48519 2.9155745,4.13815 4.7499995,5.89453 1.834426,1.75638 5.360938,4.10947 7.835938,5.22851 2.475,1.11904 5.625,2.04274 7,2.05274 1.375,0.01 4.044484,-0.92376 5.931641,-2.07422 1.887157,-1.15047 4.362157,-3.2419 5.5,-4.64844 1.137843,-1.40655 3.094042,-4.40086 4.347656,-6.6543 1.253613,-2.25344 3.200339,-7.10311 4.326172,-10.77734 l 2.046875,-6.68164 10.173828,11.14453 C 65.921725,187.33603 73.875,195.75174 78,199.9082 c 4.125,4.15646 10.172432,10.61947 13.439453,14.36328 5.486988,6.28777 5.85754,7.01167 4.847656,9.48047 -0.601297,1.46995 -4.582322,10.09688 -8.845703,19.17188 -4.263381,9.075 -9.9809,22.8 -12.705078,30.5 -2.724179,7.7 -6.051247,17.15 -7.394531,21 -1.343284,3.85 -4.859496,16.675 -7.814453,28.5 -2.954957,11.825 -5.830023,23.75 -6.388672,26.5 -0.558649,2.75 -1.51079,8.825 -2.115234,13.5 -0.604446,4.675 -1.73753,12.55 -2.517579,17.5 -0.78005,4.95 -1.91862,15.75 -2.53125,24 -0.61263,8.25 -1.30393,22.425 -1.537109,31.5 -0.233178,9.075 -0.689524,20.55 -1.013672,25.5 -0.324147,4.95 -0.754101,15.075 -0.955078,22.5 -0.200978,7.425 -0.99142,29.925 -1.755859,50 -0.76444,20.075 -1.203833,36.84879 -0.976563,37.27539 0.227269,0.4266 7.241567,0.65161 15.587891,0.5 L 70.5,571.42383 l 0.308594,-4.83594 c 0.201709,-3.16409 -0.235093,-5.66652 -1.263672,-7.23633 -0.864738,-1.31975 -2.633709,-3.0942 -3.929688,-3.94336 -1.295979,-0.84916 -4.154711,-1.86766 -6.353515,-2.26367 l -3.998047,-0.7207 3.208984,-14.25781 c 1.765081,-7.8418 3.463402,-14.51224 3.773438,-14.82227 0.310036,-0.31004 6.118377,0.33047 12.908203,1.42187 6.789826,1.0914 18.420703,2.72404 25.845703,3.62891 7.425,0.90487 15.67171,2.06983 18.32617,2.58789 2.65446,0.51805 7.48637,0.94141 10.73828,0.94141 3.25191,0 12.1052,0.64834 19.67383,1.4414 7.56863,0.79307 27.03672,1.94324 43.26172,2.55469 21.14373,0.79683 39.69748,0.81441 65.5,0.0645 19.8,-0.57548 41.175,-1.51581 47.5,-2.08985 6.325,-0.57404 17.575,-1.44717 25,-1.94141 7.425,-0.49423 20.7,-1.59717 29.5,-2.44921 8.8,-0.85205 17.64989,-1.73188 19.66602,-1.95703 l 3.66601,-0.41016 1.56055,8.64258 c 0.85821,4.75394 1.85248,10.55703 2.21094,12.89453 0.62846,4.09816 0.55707,4.25 -2.00782,4.25 -1.46296,0 -4.16258,0.62762 -5.99804,1.39453 -1.83545,0.7669 -4.06992,2.44219 -4.9668,3.72266 -1.0075,1.43841 -1.63086,4.34483 -1.63086,7.60546 v 5.27735 h 15.5 15.5 l 0.19922,-30.25 c 0.10986,-16.6375 0.0649,-48.025 -0.0996,-69.75 -0.16453,-21.725 -0.6756,-41.27688 -1.13672,-43.44727 -0.46112,-2.17039 -0.62075,-4.29732 -0.35547,-4.72656 0.26529,-0.42925 -0.21015,-10.64234 -1.05469,-22.69727 -0.84453,-12.05492 -1.7424,-22.52799 -1.99609,-23.27343 -0.2537,-0.74544 -1.39233,-9.90547 -2.53125,-20.35547 -1.13891,-10.45 -3.22067,-26.19271 -4.625,-34.98438 -1.40433,-8.79167 -3.60841,-20.26667 -4.89844,-25.5 -1.29003,-5.23333 -4.35939,-16.49062 -6.82031,-25.01562 -2.46092,-8.525 -5.18619,-17.525 -6.05664,-20 -0.87045,-2.475 -2.90213,-8.40994 -4.51562,-13.1875 l -2.9336,-8.68555 12.16211,-11.53711 c 6.68936,-6.34556 18.84312,-17.73758 27.00977,-25.31445 8.16665,-7.57688 15.20071,-13.90692 15.63086,-14.06836 0.43014,-0.16143 1.06416,1.20707 1.4082,3.04102 0.34405,1.83394 2.17463,6.56603 4.06836,10.51757 1.90276,3.9704 5.44011,9.1823 7.90625,11.64844 2.95862,2.95863 5.68626,4.69093 8.09375,5.14258 2.42558,0.45504 5.06818,0.13256 7.95703,-0.9707 2.37867,-0.90843 6.40202,-3.69962 8.94141,-6.20313 2.69237,-2.65434 5.10089,-6.16931 5.77929,-8.43359 0.9688,-3.23359 0.87681,-4.63571 -0.55273,-8.37891 -1.10351,-2.8895 -3.70334,-6.3099 -7.2793,-9.57812 -3.0595,-2.79621 -8.87649,-6.90352 -12.92773,-9.12696 -6.90093,-3.78745 -7.32206,-4.20975 -6.65821,-6.70312 0.38973,-1.46376 0.70708,-5.36211 0.70508,-8.66211 -0.002,-3.3 -0.58461,-7.69224 -1.29297,-9.75977 -0.70835,-2.06753 -1.95931,-4.43003 -2.77929,-5.25 -0.81997,-0.81997 -2.82914,-1.49023 -4.46485,-1.49023 -1.82428,0 -3.92211,0.94945 -5.42773,2.45508 -1.99176,1.99175 -2.45508,3.45819 -2.45508,7.78125 0,2.93014 0.61169,7.56256 1.35938,10.29492 0.74766,2.73236 1.67366,5.69964 2.05859,6.59375 0.54104,1.25673 -0.84539,2.49056 -6.10938,5.43359 -3.7451,2.09382 -9.05859,5.00571 -11.80859,6.47266 -2.75,1.46696 -11.525,6.16587 -19.5,10.4414 -7.975,4.27553 -17.35481,9.55154 -20.84375,11.72461 -3.48893,2.17308 -7.47537,4.03046 -8.85937,4.12696 -2.24889,0.15681 -2.83043,-0.62146 -5.4629,-7.32422 -1.62006,-4.125 -5.45364,-13.35 -8.51953,-20.5 -3.06589,-7.15 -8.29327,-18.175 -11.61718,-24.5 -3.32392,-6.325 -7.23853,-13.3 -8.69922,-15.5 -1.46069,-2.2 -3.62173,-6.025 -4.80078,-8.5 -1.17904,-2.475 -5.19247,-8.25489 -8.91993,-12.84375 -3.72745,-4.58887 3.9913,8.12967 -17.47499,-20.521769 -21.46628,-28.651437 -88.94,-24.365521 -112.95279,4.772625 z"
             transform="translate(-5,-4.9236342)"
             inkscape:label="body"
             sodipodi:nodetypes="zssssssssssssssssssssssssssssssscccsssssssssssssssscccsscccssssssssssscccsssssccccssssssssssccssssssssssssssssssssssssssssssssszz" />
          <path
             id="path887"
             style="display:inline;fill:#fdd258"
             d="m 221,345.58203 c -41.49114,1.03334 -80.4451,29.98101 -95.0498,68.48372 -9.07456,36.62208 16.80882,74.85176 51.53287,86.29111 41.1428,15.72097 92.3293,9.34412 124.21426,-22.48299 22.84589,-26.60373 30.75695,-70.03365 8.16591,-99.18549 -18.48924,-24.41543 -50.16893,-34.76145 -79.95325,-33.04847 -2.97005,-0.003 -5.94031,-0.004 -8.90999,-0.0579 z"
             inkscape:label="spot" />
        </g>
        <path
           id="path1217"
           style="display:inline;fill:#161f5a;fill-opacity:1;stroke:none;stroke-opacity:1"
           inkscape:label="outline"
           d="m 202.88672,0.078125 c -1.45242,-0.10882101 -2.92443,-0.13023175 -4.36914,0.0546875 -4.99677,0.63957457 -9.53037,1.0917236 -14.67188,3.6230469 -3.49001,1.7182387 -8.2582,4.7607477 -10.5957,6.7617186 -2.3375,2.000971 -4.25,4.429055 -4.25,5.394531 0,0.965475 0.29935,2.055209 0.66602,2.421875 C 170.03268,18.700651 170.92963,19 171.6582,19 c 0.72858,0 3.46673,-1.644834 6.08399,-3.654297 2.61726,-2.009463 7.23296,-4.793766 10.25781,-6.1874999 4.45242,-2.0515077 7.02318,-2.5298917 13.5,-2.5136719 6.00737,0.015045 9.21474,0.5598625 12.87695,2.1875 C 217.05936,10.024208 220.04829,11 221.01953,11 c 0.97124,0 2.05134,-0.739991 2.39844,-1.6445312 C 223.7743,8.4269029 223.30663,6.8918868 222.3457,5.8300781 221.40964,4.795743 217.53957,3.0063425 213.74414,1.8535156 209.68999,0.62210382 206.54368,0.35211788 202.88672,0.078125 Z M 270,1.2475492 c -5.33636,-0.033476 -11.28254,0.6137724 -15.78906,2.646982 -2.90945,1.3126585 -5.66151,3.1107657 -6.11524,3.9960938 -0.45376,0.8853281 -0.62346,2.171875 -0.37695,2.859375 0.24651,0.6875 1.19857,1.250277 2.11523,1.25 0.91667,-2.78e-4 4.03239,-0.900278 6.92579,-2 3.73144,-1.4182462 7.68363,-2 13.59179,-2 7.23196,0 9.10729,0.3893486 14.23828,2.958984 3.25034,1.627796 7.48516,4.311087 9.41016,5.960938 1.925,1.649851 4.23179,3.01671 5.12695,3.039062 0.89515,0.02235 2.14074,-0.576742 2.76758,-1.332031 0.62679,-0.755288 0.89571,-1.992788 0.59766,-2.75 -0.29804,-0.757211 -2.89364,-3.123989 -5.76758,-5.259765 C 293.85067,8.4814097 289.025,5.5648079 286,4.1367188 281.17834,1.860436 275.41948,1.2815461 270,1.2475492 Z M 407.8457,54 c 8.92257,0 11.52566,0.433754 20.92188,3.488281 5.90233,1.918733 14.55742,5.668844 19.23242,8.332031 6.47352,3.687748 8.92742,5.697763 10.29492,8.433594 1.62359,3.248163 1.656,3.927782 0.33399,7.091797 -0.80413,1.924557 -2.68064,4.297618 -4.16993,5.273438 -1.48929,0.975819 -6.13983,2.33562 -10.33398,3.023437 -4.19415,0.687817 -14.6,1.21105 -23.125,1.16211 -8.525,-0.04894 -18.65,-0.464017 -22.5,-0.921876 -3.85,-0.457856 -11.725,-1.28501 -17.5,-1.83789 -5.775,-0.552879 -20.85,-1.495094 -33.5,-2.095703 -12.65,-0.60061 -29.86202,-0.948416 -38.25,-0.771485 -8.38799,0.176932 -15.25049,0.273654 -15.25,0.214844 4.8e-4,-0.05881 3.9375,-1.580284 8.75,-3.382812 4.8125,-1.802527 16.625,-6.32529 26.25,-10.048828 9.625,-3.72354 21.1,-7.662169 25.5,-8.751954 4.4,-1.089785 12.05,-2.918931 17,-4.066406 4.95,-1.147474 12.86028,-2.774865 17.57812,-3.615234 C 393.796,54.686976 402.24089,54 407.8457,54 Z M 56.427734,54.679688 c 5.950862,0.04709 12.389718,0.614756 17.572266,1.568359 5.225,0.961416 11.975,2.388229 15,3.169922 3.025,0.781692 10.675,2.633034 17,4.115234 6.325,1.4822 14.425,3.933098 18,5.447266 3.575,1.514169 10.775,4.379758 16,6.367187 5.225,1.987429 13.55,5.208044 18.5,7.15625 l 9,3.541016 -14.5,-0.457031 c -7.975,-0.251712 -23.5,-0.06569 -34.5,0.414062 -11,0.47975 -24.5,1.365198 -30,1.966797 -5.5,0.6016 -14.275,1.521369 -19.5,2.044922 -5.225,0.523554 -16.25,1.1346 -24.5,1.357422 -8.25,0.222821 -18.572248,-0.0092 -22.9375,-0.517578 C 17.197248,90.345178 11.670121,89.063434 9.2792969,88.005859 6.0600238,86.581821 4.539539,85.144465 3.4199219,82.464844 2.0377729,79.156895 2.0634923,78.531838 3.7050781,75.173828 5.0515808,72.419437 7.5008205,70.30793 13.5,66.736328 c 4.517122,-2.689262 12.750524,-6.3046 18.912109,-8.30664 9.370831,-3.044799 12.408097,-3.573817 21.5,-3.738282 0.825124,-0.01493 1.665502,-0.01844 2.515625,-0.01172 z M 288.96607,87.712646 c 0.43147,0 2.48877,2.334553 3.3269,3.613526 0.83802,1.278974 4.64556,6.013643 8.46094,10.523438 3.81538,4.50979 8.46942,10.9223 10.34179,14.25 1.87236,3.3277 4.82121,8.18882 6.55274,10.80273 1.73152,2.61391 6.23152,10.80309 10,18.19727 3.76847,7.39417 8.73845,17.93392 11.04492,23.42187 2.30648,5.48796 5.78801,13.99829 7.73633,18.91016 1.94832,4.91188 3.43643,9.02645 3.30664,9.14453 -0.1298,0.11808 -3.27383,1.87714 -6.98633,3.91016 -3.7125,2.03302 -6.75,4.10594 -6.75,4.60547 0,0.49953 0.3375,0.90348 0.75,0.89648 0.4125,-0.007 3.45,-1.59014 6.75,-3.51953 3.3,-1.9294 6.87186,-3.79914 7.9375,-4.1543 1.06563,-0.35516 4.21563,-1.84295 7,-3.30664 2.78436,-1.46369 8.4375,-4.58041 12.5625,-6.92578 4.125,-2.34537 11.775,-6.53942 17,-9.32031 5.225,-2.78089 12.2,-6.50791 15.5,-8.28125 3.3,-1.77334 8.85536,-4.85597 12.3457,-6.85156 3.49033,-1.99558 6.80591,-3.62891 7.36719,-3.62891 0.56127,0 0.7683,-1.0125 0.46094,-2.25 -0.30736,-1.2375 -1.25144,-4.95 -2.09961,-8.25 -0.84816,-3.3 -1.54958,-7.9125 -1.5586,-10.25 -0.0108,-2.93193 0.60465,-4.87027 1.98438,-6.25 1.1,-1.1 2.86702,-2 3.92773,-2 1.06072,0 2.61826,0.68857 3.46094,1.53125 0.84268,0.84268 1.85776,3.20518 2.25586,5.25 0.3981,2.04482 0.74589,5.29375 0.77149,7.21875 0.0256,1.925 -0.3089,5.75274 -0.74414,8.50586 l -0.79297,5.00586 6.31054,3.12109 c 3.47062,1.71637 8.77532,4.97689 11.78711,7.2461 3.01179,2.26921 6.49624,5.81174 7.74414,7.87304 1.38349,2.2853 2.27044,5.35958 2.27344,7.87891 l 0.006,4.13281 -6.93359,-7.11523 c -3.81359,-3.91297 -7.26367,-6.78516 -7.66602,-6.38282 -0.40236,0.40236 2.26765,3.83947 5.93359,7.63672 3.66594,3.79726 6.66602,7.36256 6.66602,7.92383 0,0.56128 -1.16987,2.41022 -2.59961,4.10938 l -2.59961,3.08984 -2.74219,-3.76367 c -1.50857,-2.06945 -4.8295,-5.67422 -7.3789,-8.01172 -2.5494,-2.3375 -5.09592,-4.25 -5.65821,-4.25 -0.56229,0 -1.02148,0.17838 -1.02148,0.39648 0,0.21811 3.15,3.54649 7,7.39649 3.85,3.85 7,7.51934 7,8.1543 0,0.63496 -1.66512,1.85045 -3.70117,2.70117 -2.96269,1.23789 -4.43889,1.32577 -7.39063,0.4414 -2.07044,-0.62032 -5.25692,-2.83932 -7.26367,-5.06054 -1.96613,-2.17628 -4.67572,-6.12942 -6.02148,-8.78516 -1.34577,-2.65574 -3.19003,-7.38873 -4.09961,-10.51758 -0.90958,-3.12884 -2.09089,-5.95822 -2.62305,-6.28711 -0.53215,-0.32889 -4.43932,2.71671 -8.68359,6.76953 -4.24427,4.05282 -10.8668,10.35369 -14.7168,14.00196 -3.85,3.64827 -8.575,7.90579 -10.5,9.46094 -1.925,1.55511 -9.72845,8.88882 -17.3418,16.29687 -7.61335,7.40805 -13.31495,13.64632 -12.66992,13.86133 0.64504,0.21501 2.41137,-0.79715 3.92578,-2.24805 l 2.75391,-2.63867 2.73047,9.2793 c 1.50159,5.10283 3.36365,10.73069 4.13867,12.50586 0.77503,1.77517 3.85642,11.90017 6.84766,22.5 2.99124,10.59983 6.12715,22.42148 6.96875,26.27148 0.84159,3.85 2.43949,12.85 3.55078,20 1.11128,7.15 2.7379,19.3 3.61523,27 0.87734,7.7 2.30021,18.95 3.16211,25 0.8619,6.05 1.94634,17.975 2.4082,26.5 0.46187,8.525 1.09552,19.775 1.41016,25 0.31464,5.225 0.89467,23.29227 1.28711,40.14844 0.39239,16.85616 0.40008,38.23116 0.0176,47.5 -0.38254,9.26884 -0.57482,25.7606 -0.42774,36.64844 l 0.26758,19.79492 -5.07226,-0.29492 L 386.5,563.5 386,559.57812 c -0.275,-2.15701 -1.12734,-4.12796 -1.89453,-4.38085 -1.10571,-0.36448 -1.28687,0.50043 -0.87305,4.17187 L 383.75391,564 h -3.37696 C 377.20732,564 377,563.79305 377,560.62305 c 0,-1.892 -0.71265,-3.96839 -1.61914,-4.72071 -1.45902,-1.21088 -1.58069,-0.87917 -1.24219,3.37696 0.3455,4.34409 0.19632,4.7207 -1.88086,4.7207 C 370.30434,564 370,563.48045 370,560.13672 c 0,-2.81708 0.69628,-4.56151 2.57227,-6.4375 1.4151,-1.41511 3.8901,-2.86125 5.5,-3.21484 1.60989,-0.35362 4.27632,-0.34661 5.92578,0.0156 2.2627,0.49697 2.88068,0.33296 2.51367,-0.66992 -0.26755,-0.73108 -1.63301,-7.58394 -3.0332,-15.22852 -1.40019,-7.64458 -2.72999,-14.1983 -2.95508,-14.5625 -0.2251,-0.36421 -3.02266,-0.30645 -6.2168,0.12891 -3.19413,0.43535 -13.68164,1.53074 -23.30664,2.43359 -9.625,0.90286 -23.125,2.00868 -30,2.45703 -6.875,0.44834 -14.975,1.05432 -18,1.34571 -3.025,0.29138 -10,0.88164 -15.5,1.3125 -5.5,0.43085 -35.425,0.73001 -66.5,0.66601 -36.03014,-0.0742 -60.30413,-0.54238 -67,-1.29492 -5.775,-0.64905 -16.35,-1.59464 -23.5,-2.09961 -7.15,-0.50497 -17.725,-1.60129 -23.5,-2.4375 -5.775,-0.83621 -16.35,-2.21711 -23.5,-3.06836 -7.15,-0.85117 -14.303865,-1.98361 -15.898438,-2.5156 C 66.006992,516.43481 62.5354,516 59.888672,516 c -4.716341,0 -4.832333,0.0747 -5.8125,3.75 -0.550052,2.0625 -2.365963,10.02566 -4.03711,17.69531 C 48.367916,545.11496 47,551.4841 47,551.59961 c 0,0.11552 1.790849,-0.0305 3.980469,-0.32422 2.254874,-0.30245 5.343516,0.0305 7.123047,0.76758 1.959182,0.81152 3.660879,2.54263 4.519531,4.59765 C 63.380394,558.45322 64,560.85109 64,561.96875 64,563.47223 63.346666,564 61.488281,564 c -2.383865,0 -2.478793,-0.21032 -1.851562,-4.13281 0.526441,-3.29218 0.376162,-4.0405 -0.738281,-3.67383 -0.774587,0.25486 -1.537155,2.1014 -1.708985,4.13476 C 56.895582,563.80564 56.69162,564 53.351562,564 H 49.824219 L 50.5,560 c 0.552636,-3.27103 0.386404,-4 -0.912109,-4 C 48.575121,556 48,556.87562 48,558.41797 c 0,1.33002 -0.273578,3.13002 -0.607422,4 C 46.950008,563.57129 45.41889,564 41.738281,564 h -5.048828 l 0.794922,-18.25 c 0.436875,-10.0375 0.923155,-23.65 1.080078,-30.25 0.156924,-6.6 0.83077,-22.8 1.498047,-36 0.667278,-13.2 1.36714,-32.55 1.554688,-43 0.187547,-10.45 0.799718,-23.6908 1.361328,-29.42383 C 43.540126,401.34315 44,393.69092 44,390.07031 c 0,-3.62061 0.454249,-8.1548 1.009766,-10.07617 0.555518,-1.92137 1.441265,-7.09414 1.96875,-11.49414 0.527485,-4.4 1.635092,-12.275 2.460937,-17.5 0.825846,-5.225 3.759662,-18.5 6.519531,-29.5 2.75987,-11 5.990907,-23.15 7.179688,-27 1.188781,-3.85 3.168128,-9.475 4.398437,-12.5 1.230309,-3.025 3.709452,-10 5.509766,-15.5 1.800314,-5.5 6.400967,-16.75 10.222656,-25 3.821689,-8.25 7.836214,-16.74333 8.921875,-18.87305 l 1.97461,-3.87109 3.800781,3.71289 c 2.091263,2.04206 4.065413,3.28747 4.386723,2.76758 0.32132,-0.5199 -0.58322,-2.02435 -2.00977,-3.3418 -1.42654,-1.31745 -6.294781,-6.67674 -10.820312,-11.91015 -4.525532,-5.23347 -11.782633,-13.10844 -16.126954,-17.5 -4.344321,-4.39156 -12.174284,-12.63471 -17.398437,-18.31836 -5.224153,-5.68365 -9.648698,-10.74615 -9.832031,-11.25 C 45.982682,162.41217 45.254484,162 44.546875,162 c -0.772281,0 -1.750189,2.35916 -2.447266,5.90234 -0.638702,3.24646 -2.553558,8.68715 -4.253906,12.08985 -1.700348,3.40269 -4.566761,7.6605 -6.369141,9.46289 -1.802381,1.80238 -4.463329,3.57534 -5.914062,3.93945 -1.450734,0.36411 -4.4233,0.18135 -6.605469,-0.40625 l -3.966797,-1.06836 1.628907,-3.15234 c 0.896504,-1.73365 3.824587,-5.47159 6.505859,-8.30664 2.681271,-2.83505 4.875,-5.76835 4.875,-6.51953 0,-0.75118 -2.276219,0.86638 -5.058594,3.5957 -2.782375,2.72933 -6.010692,6.53789 -7.173828,8.46289 -1.163136,1.925 -2.265946,3.69282 -2.451172,3.92773 -0.185226,0.2349 -1.681909,-0.8622 -3.3261716,-2.4375 C 8.3459714,185.91492 7,184.10413 7,183.4668 c 0,-0.63733 2.7361897,-4.41785 6.080078,-8.40039 3.343889,-3.98255 5.770405,-7.53763 5.392578,-7.90235 -0.377826,-0.36472 -3.116848,2.03594 -6.085937,5.33594 -2.9690905,3.3 -5.6532726,6.79318 -5.964844,7.76367 -0.3115713,0.97049 -0.9837386,1.50686 -1.4941406,1.19141 C 4.4173324,181.13964 4,179.3626 4,177.50586 c 0,-1.85673 0.4378738,-4.527 0.9726562,-5.93359 0.5347826,-1.40658 2.8559587,-4.60002 5.1582028,-7.09766 2.302247,-2.49764 7.452095,-6.72761 11.445313,-9.39844 3.993218,-2.67082 7.738733,-5.01659 8.322266,-5.21484 0.708784,-0.24081 0.545202,-2.02105 -0.492188,-5.36133 -1.032099,-3.32324 -1.412457,-7.41827 -1.132812,-12.21289 0.231407,-3.96758 0.996039,-7.90508 1.697265,-8.75 C 30.671929,122.69218 32.514938,122 34.066406,122 c 1.781369,0 3.393893,0.81914 4.376953,2.22266 0.956398,1.36545 1.556641,4.3686 1.556641,7.78906 0,3.06206 -0.675,8.15878 -1.5,11.32617 -0.825,3.16739 -1.5,5.96277 -1.5,6.21094 C 37,149.797 37.453244,150 38.007812,150 c 0.55457,0 5.392069,2.85449 10.75,6.34375 5.357935,3.48927 14.017188,9.05309 19.242188,12.36328 5.225,3.31018 11.642638,7.31821 14.261719,8.90625 2.619082,1.58805 7.119082,4.61341 10,6.72266 2.880919,2.10926 7.938281,5.19446 11.238281,6.85742 3.3,1.66296 6.9,3.79864 8,4.74609 1.1,0.94746 3.74513,2.71646 5.87695,3.93164 2.13182,1.21517 4.08885,1.99708 4.34961,1.73633 0.26075,-0.26076 0.1755,-0.95833 -0.18945,-1.54883 -0.36495,-0.5905 -2.09699,-1.80856 -3.84961,-2.70703 -1.75263,-0.89847 -4.40821,-2.65147 -5.90039,-3.89648 -1.49218,-1.24502 -3.2429,-2.44034 -3.89063,-2.65625 -0.78258,-0.26086 -0.34654,-1.71885 1.30079,-4.34571 1.36348,-2.17418 5.32178,-9.12812 8.79492,-15.45312 3.47313,-6.325 9.10813,-15.775 12.52343,-21 3.41534,-5.225 7.05969,-10.89618 8.09766,-12.60156 1.03797,-1.70539 4.84714,-7.55539 8.46484,-13 3.61771,-5.44462 11.67235,-15.35865 17.9004,-22.03125 l 11.78283,-12.494387 -4.5194,-5.062012 -7.68336,-2.992432 C 160.67618,80.283935 149.85,76.054545 140.5,72.417969 131.15,68.781393 119.225,64.48979 114,62.880859 108.775,61.271928 101.575,59.317656 98,58.539062 94.425,57.760467 88.35,56.45936 84.5,55.646484 80.65,54.833608 73.675,53.462663 69,52.601562 62.237769,51.356009 58.353344,51.22713 50,51.966797 43.00126,52.586518 36.62975,53.880604 30.892578,55.847656 26.158559,57.470767 18.599217,60.7211 14.09375,63.072266 9.5882828,65.423431 4.5741858,68.860473 2.9511719,70.708984 0.88378946,73.063602 0,75.118637 0,77.574219 c 0,1.927773 0.85624767,5.183858 1.9023438,7.234375 1.1320737,2.219048 3.2853414,4.387012 5.3203124,5.357422 1.8804208,0.896711 6.8339758,2.182155 11.0078128,2.855468 5.246657,0.846376 14.330007,1.041181 29.429687,0.632813 C 59.672302,93.329431 75.35,92.395668 82.5,91.580078 89.65,90.764487 106.975,89.603417 121,88.998047 136.11149,88.34578 152.14203,88.22419 160.34961,88.699219 L 174.19922,89.5 l -8.69141,9 c -4.78048,4.95 -10.81919,11.7 -13.41992,15 -2.60073,3.3 -5.80547,7.8 -7.12109,10 -1.31562,2.2 -4.32154,6.63636 -6.67969,9.85938 -2.35815,3.22299 -4.28711,6.33313 -4.28711,6.91015 0,0.57702 -1.72134,3.33869 -3.82422,6.13867 -2.10287,2.79998 -7.12254,10.9418 -11.15625,18.0918 -4.03371,7.15 -8.87177,15.5875 -10.75,18.75 -1.87824,3.1625 -3.94413,5.73851 -4.5918,5.72461 -0.64768,-0.0139 -3.65273,-1.77705 -6.67773,-3.91797 -3.025,-2.14091 -8.875,-6.01495 -13,-8.60937 -4.125,-2.59441 -11.55,-7.29099 -16.5,-10.43555 -4.95,-3.14455 -13.174772,-8.36958 -18.277344,-11.61328 -8.359925,-5.31438 -9.223222,-6.14567 -8.730468,-8.39844 0.300755,-1.375 0.821232,-6.12268 1.15625,-10.55078 0.484225,-6.40026 0.271974,-8.70484 -1.03711,-11.23633 -0.928866,-1.79623 -2.729003,-3.45529 -4.128906,-3.80664 -1.364996,-0.34259 -3.637584,-0.33282 -5.048828,0.0215 -1.719564,0.43159 -3.076538,1.86443 -4.113282,4.34571 -1.147279,2.74583 -1.410611,5.77312 -1.019531,11.71484 0.290035,4.40654 0.821948,8.94204 1.181641,10.07813 0.543371,1.71626 -0.329769,2.67382 -5.164063,5.66992 -3.20013,1.98331 -7.80116,5.31196 -10.224609,7.39648 -2.4234491,2.08452 -5.6859491,5.80913 -7.25,8.27539 C 2.9863881,170.83685 2,173.72896 2,176.24609 c 0,2.11963 0.6359881,5.06755 1.4140625,6.55274 0.7780745,1.48519 2.9155745,4.13815 4.75,5.89453 1.8344256,1.75638 5.3609375,4.10945 7.8359375,5.22852 2.475,1.11904 5.625,2.04273 7,2.05273 1.375,0.01 4.044484,-0.92376 5.931641,-2.07422 1.887157,-1.15047 4.362157,-3.2419 5.5,-4.64844 1.137843,-1.40655 3.094042,-4.40085 4.347656,-6.65429 1.253613,-2.25344 3.200339,-7.10312 4.326172,-10.77735 l 2.046875,-6.68164 10.173828,11.14453 C 60.921725,182.4122 68.875,190.82791 73,194.98438 c 4.125,4.15645 10.172432,10.61947 13.439453,14.36328 5.486988,6.28777 5.85754,7.01167 4.847656,9.48046 -0.601297,1.46996 -4.582322,10.09688 -8.845703,19.17188 -4.263381,9.075 -9.9809,22.8 -12.705078,30.5 -2.724179,7.7 -6.051247,17.15 -7.394531,21 -1.343284,3.85 -4.859496,16.675 -7.814453,28.5 -2.954957,11.825 -5.830023,23.75 -6.388672,26.5 -0.558649,2.75 -1.51079,8.825 -2.115234,13.5 -0.604448,4.675 -1.73753,12.55 -2.517579,17.5 -0.78005,4.95 -1.91862,15.75 -2.53125,24 -0.61263,8.25 -1.30393,22.425 -1.537109,31.5 -0.233178,9.075 -0.689524,20.55 -1.013672,25.5 -0.324147,4.95 -0.754101,15.075 -0.955078,22.5 -0.200978,7.425 -0.99142,29.925 -1.755859,50 -0.76444,20.075 -1.203833,36.84879 -0.976563,37.27539 0.227269,0.4266 7.241567,0.65161 15.587891,0.5 L 65.5,566.5 l 0.308594,-4.83594 c 0.201709,-3.16409 -0.235093,-5.66652 -1.263672,-7.23633 -0.864738,-1.31975 -2.633709,-3.09421 -3.929688,-3.94335 -1.295979,-0.84916 -4.154711,-1.86767 -6.353515,-2.26368 L 50.263672,547.5 53.472656,533.24219 c 1.765081,-7.8418 3.463402,-14.51224 3.773438,-14.82227 0.310036,-0.31004 6.118377,0.33047 12.908203,1.42188 6.789826,1.0914 18.420703,2.72403 25.845703,3.6289 7.425,0.90487 15.67171,2.06983 18.32617,2.58789 2.65446,0.51805 7.48637,0.94141 10.73828,0.94141 3.25191,0 12.1052,0.64835 19.67383,1.44141 7.56863,0.79307 27.03672,1.94323 43.26172,2.55468 21.14373,0.79683 39.69748,0.81421 65.5,0.0645 19.8,-0.57548 41.175,-1.51581 47.5,-2.08985 6.325,-0.57404 17.575,-1.44717 25,-1.9414 7.425,-0.49423 20.7,-1.59718 29.5,-2.44922 8.8,-0.85205 17.64989,-1.73187 19.66602,-1.95703 l 3.66601,-0.41016 1.56055,8.64453 c 0.85821,4.75394 1.85248,10.55508 2.21094,12.89258 0.62846,4.09816 0.55707,4.25 -2.00782,4.25 -1.46296,0 -4.16258,0.62762 -5.99804,1.39453 -1.83545,0.7669 -4.06992,2.44219 -4.9668,3.72266 C 368.62336,554.5554 368,557.46203 368,560.72266 V 566 h 15.5 15.5 l 0.19922,-30.25 c 0.10986,-16.6375 0.0649,-48.025 -0.0996,-69.75 -0.16453,-21.725 -0.6756,-41.27492 -1.13672,-43.44531 -0.46112,-2.17039 -0.62075,-4.29731 -0.35547,-4.72657 0.26529,-0.42923 -0.21015,-10.64428 -1.05469,-22.69921 -0.84453,-12.05492 -1.7424,-22.528 -1.99609,-23.27344 -0.2537,-0.74544 -1.39233,-9.90547 -2.53125,-20.35547 -1.13891,-10.45 -3.22067,-26.1927 -4.625,-34.98438 -1.40433,-8.79167 -3.60841,-20.26666 -4.89844,-25.5 -1.29003,-5.23333 -4.35939,-16.49062 -6.82031,-25.01562 -2.46092,-8.525 -5.18619,-17.525 -6.05664,-20 -0.87045,-2.475 -2.90215,-8.40799 -4.51562,-13.18555 l -2.9336,-8.6875 12.16211,-11.53711 c 6.68936,-6.34556 18.84312,-17.73758 27.00977,-25.31445 8.16665,-7.57688 15.20071,-13.90692 15.63086,-14.06836 0.43014,-0.16143 1.06416,1.20708 1.4082,3.04102 0.34405,1.83394 2.17463,6.56604 4.06836,10.51757 1.90276,3.97041 5.44011,9.1823 7.90625,11.64844 2.95862,2.95863 5.68626,4.69093 8.09375,5.14258 2.42558,0.45504 5.06818,0.13451 7.95703,-0.96875 2.37867,-0.90843 6.40202,-3.70157 8.94141,-6.20508 2.69237,-2.65434 5.10089,-6.16931 5.77929,-8.43359 0.9688,-3.23359 0.87681,-4.63571 -0.55273,-8.37891 -1.10351,-2.8895 -3.70334,-6.3099 -7.2793,-9.57812 -3.0595,-2.79621 -8.87649,-6.90352 -12.92773,-9.12696 -6.90093,-3.78745 -7.32206,-4.20975 -6.65821,-6.70312 0.38973,-1.46376 0.70708,-5.36211 0.70508,-8.66211 -0.002,-3.3 -0.58461,-7.69224 -1.29297,-9.75977 -0.70835,-2.06753 -1.95931,-4.43003 -2.77929,-5.25 -0.82,-0.81997 -2.82914,-1.49023 -4.46485,-1.49023 -1.82428,0 -3.92211,0.94945 -5.42773,2.45508 -1.99176,1.99175 -2.45508,3.45819 -2.45508,7.78125 0,2.93014 0.61167,7.56256 1.35938,10.29492 0.74765,2.73236 1.67366,5.69964 2.05859,6.59375 0.54104,1.25673 -0.84539,2.49056 -6.10938,5.43359 -3.7451,2.09382 -9.05859,5.00766 -11.80859,6.47461 -2.75,1.46696 -11.525,6.16393 -19.5,10.43946 -7.975,4.27553 -17.35481,9.55154 -20.84375,11.72461 -3.48893,2.17308 -7.4754,4.03045 -8.85937,4.12695 -2.2489,0.15681 -2.83043,-0.62146 -5.4629,-7.32422 -1.62006,-4.125 -5.45364,-13.35 -8.51953,-20.5 -3.06589,-7.15 -8.29327,-18.175 -11.61718,-24.5 -3.32392,-6.325 -7.23853,-13.3 -8.69922,-15.5 -1.46069,-2.2 -3.62173,-6.025 -4.80078,-8.5 -1.17904,-2.475 -5.19247,-8.25489 -8.91993,-12.84375 -3.72745,-4.58887 -8.28211,-10.326361 -10.12109,-12.75 L 292.8125,88 312.65625,88.04687 C 323.57023,88.0727 341.275,88.535549 352,89.076167 c 10.725,0.540617 23.55,1.389293 28.5,1.884766 4.95,0.495468 17.96837,1.463514 28.92969,2.15039 15.40586,0.965375 21.9886,0.982745 29,0.08008 4.98864,-0.64226 10.83553,-1.665052 12.99219,-2.273437 2.15663,-0.608386 5.16038,-2.345934 6.67578,-3.861328 1.51539,-1.515395 3.06347,-4.396251 3.43945,-6.400391 0.37602,-2.004139 0.38276,-4.840358 0.0156,-6.302734 -0.36703,-1.462377 -2.08226,-3.981379 -3.8125,-5.597657 -1.73023,-1.616279 -6.59402,-4.670998 -10.80664,-6.789062 -4.21262,-2.118064 -11.65873,-5.235324 -16.54687,-6.927735 -6.91923,-2.395625 -11.32481,-3.214006 -19.89258,-3.697265 -8.34644,-0.470774 -13.29885,-0.200633 -20.5,1.121094 -5.22222,0.958506 -13.31914,2.619888 -17.99414,3.691406 -4.675,1.071518 -12.325,2.893508 -17,4.048828 -4.675,1.15532 -16.825,5.343961 -27,9.308594 -10.175,3.964634 -20.975,8.007925 -24,8.984375 -3.025,0.976449 -6.68916,2.375317 -8.14258,3.109375 l -3.48706,1.594238 z"
           sodipodi:nodetypes="aasssssssssssssaasssssssssssssassssssssssssssssssssssssscccsssscssssssssccsssssssssssssssssssscssssscccsscccssscccsssssssssssssssscccssssssssssccccssccsssssssssssssssssssssssssssssssssssscsssssccssssssssssssscccssssssssssscccsssssssssssssssssssssssssssssssssssssssssssccccsssssssssssssssscccsssssssssssssssscssssscsssssssscccsssssssssssssssscccsscccssssssscsssccssssssccccssssssssssccssssssssssssssssssssssssssssssssscccssssssscsssssssssccc" />
      </g>
      <g
         id="g1282"
         inkscape:groupmode="layer"
         style="display:inline;opacity:1"
         inkscape:label="mouth">
        <g
           id="g1550"
           inkscape:label="teeth"
           style="display:inline;fill:#ffffff;fill-opacity:1;stroke:#161f5a;stroke-opacity:1">
          <path
             id="path1536"
             style="display:inline;fill:#ffffff;fill-opacity:1;stroke:#161f5a;stroke-width:2;stroke-linecap:butt;stroke-miterlimit:4;stroke-dasharray:none;stroke-opacity:1"
             d="m 295.6875,201.78125 c -1.54523,0.38511 -7.96997,2.00047 -13.42969,3.11328 0,0 -8.26049,1.68878 -12.41601,2.39063 -4.47896,0.75647 -6.96247,1.18533 -13.48438,1.96093 -6.52192,0.77559 -9.67048,1.18517 -14.53125,1.44141 -1.60653,0.0847 -3.21746,0.0428 -4.82617,0.0312 -2.08374,-0.0151 -6.25,-0.13086 -6.25,-0.13086 -3.4375,-0.0719 -9.85,-0.53945 -14.25,-1.03906 -4.4,-0.49961 -9.30666,-1.24587 -10.9043,-1.65821 0,0 -3.16372,-0.69041 -4.75195,-1.00195 -4.57921,-0.89821 -8.58745,-1.30622 -13.77344,-2.5 l -8.50976,-1.93359 c 2.93132,2.71514 6.58753,5.76227 9.67187,7.78711 4.09288,2.68689 10.71414,6.25713 14.54883,7.85351 3.8314,1.59502 11.30694,3.86534 16.44141,4.98047 7.40928,1.60914 11.60086,1.93145 20.24218,1.56641 5.99874,-0.2534 13.90627,-1.17332 17.34571,-1.99414 3.52273,-0.84069 8.93373,-2.50672 11.89453,-3.66211 2.94622,-1.14972 8.3874,-3.81753 11.95117,-5.86524 3.55687,-2.04375 8.6171,-5.48314 11.10742,-7.54101 1.00063,-0.82688 2.46901,-2.30399 3.92383,-3.79883 z"
             transform="translate(-5,-4.9236342)"
             inkscape:label="bottom" />
          <path
             id="path1541"
             style="display:inline;fill:#ffffff;fill-opacity:1;stroke:#161f5a;stroke-width:2;stroke-linecap:butt;stroke-miterlimit:4;stroke-dasharray:none;stroke-opacity:1"
             d="m 172.38477,130.47266 c -2.79416,-5e-4 -4.66344,0.10838 -6.02539,0.39257 -1.36198,0.28419 -2.21857,0.98005 -3.16016,1.72071 -0.53914,0.42408 -1.43029,1.5356 -2.26367,2.89648 -0.83338,1.36088 -1.64815,2.98589 -2.22461,4.50391 -0.65565,1.72654 -1.37796,4.04091 -1.98242,6.57031 0.37272,0.0465 3.49354,0.43606 6.31836,1.19141 2.99941,0.80205 11.52812,2.34386 18.95312,3.42578 7.425,1.08192 21.375,2.71113 31,3.62109 5.96765,0.56419 11.37558,0.9284 16.40039,1.09961 5.02481,0.17121 9.6665,0.14939 14.09961,-0.0606 7.15,-0.33861 20.875,-1.49925 30.5,-2.58007 9.625,-1.08082 21.325,-2.6783 26,-3.54883 4.55056,-0.84735 14.22311,-3.46765 16.44922,-4.15039 -0.81839,-3.22514 -2.00786,-6.98012 -2.67969,-8.2793 -0.76868,-1.48646 -2.44587,-3.72459 -3.52344,-4.72851 -0.8064,-0.75103 -1.49763,-1.42042 -2.75586,-1.69532 -1.25888,-0.27505 -3.08549,-0.37456 -5.92773,-0.37109 -6.47873,0.0509 -11.66876,1.34846 -17.38086,2.65625 -5.72478,1.3107 -16.30815,4.31203 -23.42773,6.64648 -12.18317,3.99476 -13.94206,4.87552 -24.25782,4.83789 -10.13082,-0.037 -12.24391,-0.98069 -23.74804,-4.74609 -6.84784,-2.24136 -17.20574,-5.22864 -22.93946,-6.61719 -6.13768,-1.48636 -13.36054,-2.7844 -17.42382,-2.78515 z"
             transform="translate(-5,-4.9236342)"
             inkscape:label="top" />
          <g
             id="g1589"
             style="display:inline;stroke:#161f5a;stroke-opacity:1"
             inkscape:label="lines">
            <path
               id="path1619"
               style="fill:none;stroke:#161f5a;stroke-width:2;stroke-linecap:butt;stroke-linejoin:miter;stroke-miterlimit:4;stroke-dasharray:none;stroke-opacity:1"
               d="m 192.03097,205.28877 -0.81594,6.70694"
               transform="translate(-5,-4.9236342)" />
            <path
               id="path1785"
               style="fill:none;stroke:#161f5a;stroke-width:2;stroke-linecap:butt;stroke-linejoin:miter;stroke-miterlimit:4;stroke-dasharray:none;stroke-opacity:1"
               d="m 217.68399,209.63489 -0.19871,12.98098"
               transform="translate(-5,-4.9236342)" />
            <path
               id="path1783"
               style="fill:none;stroke:#161f5a;stroke-width:2;stroke-linecap:butt;stroke-linejoin:miter;stroke-miterlimit:4;stroke-dasharray:none;stroke-opacity:1"
               d="m 254.14245,209.46425 0.0313,13.59868"
               transform="translate(-5,-4.9236342)" />
            <path
               id="path1781"
               style="fill:none;stroke:#161f5a;stroke-width:2;stroke-linecap:butt;stroke-linejoin:miter;stroke-miterlimit:4;stroke-dasharray:none;stroke-opacity:1"
               d="m 279.98097,205.33308 0.352,7.94581"
               transform="translate(-5,-4.9236342)" />
            <path
               id="path1777"
               style="fill:none;stroke:#161f5a;stroke-width:2;stroke-linecap:butt;stroke-linejoin:miter;stroke-miterlimit:4;stroke-dasharray:none;stroke-opacity:1"
               d="m 304.60624,130.67142 2.6259,17.20878"
               transform="translate(-5,-4.9236342)" />
            <path
               id="path1773"
               style="fill:none;stroke:#161f5a;stroke-width:2;stroke-linecap:butt;stroke-linejoin:miter;stroke-miterlimit:4;stroke-dasharray:none;stroke-opacity:1"
               d="m 293.84292,131.21694 1.98865,19.05596"
               transform="translate(-5,-4.9236342)" />
            <path
               id="path1769"
               style="fill:none;stroke:#161f5a;stroke-width:2;stroke-linecap:butt;stroke-linejoin:miter;stroke-miterlimit:4;stroke-dasharray:none;stroke-opacity:1"
               d="m 274.66866,135.83609 1.49847,17.12258"
               transform="translate(-5,-4.9236342)" />
            <path
               id="path1765"
               style="fill:none;stroke:#161f5a;stroke-width:2;stroke-linecap:butt;stroke-linejoin:miter;stroke-miterlimit:4;stroke-dasharray:none;stroke-opacity:1"
               d="m 251.5349,142.60763 -0.0207,12.5483"
               transform="translate(-5,-4.9236342)" />
            <path
               id="path1761"
               style="fill:none;stroke:#161f5a;stroke-width:2;stroke-linecap:butt;stroke-linejoin:miter;stroke-miterlimit:4;stroke-dasharray:none;stroke-opacity:1"
               d="m 220.59868,142.26504 -0.18211,13.02782"
               transform="translate(-5,-4.9236342)" />
            <path
               id="path1757"
               style="fill:none;stroke:#161f5a;stroke-width:2;stroke-linecap:butt;stroke-linejoin:miter;stroke-miterlimit:4;stroke-dasharray:none;stroke-opacity:1"
               d="m 197.11545,135.36465 -1.05901,17.45117"
               transform="translate(-5,-4.9236342)" />
            <path
               id="path1753"
               style="fill:none;stroke:#161f5a;stroke-width:2;stroke-linecap:butt;stroke-linejoin:miter;stroke-miterlimit:4;stroke-dasharray:none;stroke-opacity:1"
               d="m 178.37485,131.10265 -2.09126,19.03867"
               transform="translate(-5,-4.9236342)" />
            <path
               id="path1749"
               style="fill:none;stroke:#161f5a;stroke-width:2;stroke-linecap:butt;stroke-linejoin:miter;stroke-miterlimit:4;stroke-dasharray:none;stroke-opacity:1"
               d="m 167.72474,130.77587 -2.9904,17.27681"
               transform="translate(-5,-4.9236342)" />
          </g>
        </g>
        <path
           id="path1544"
           style="display:inline;fill:#80807f;fill-opacity:1;stroke:#161f5a;stroke-width:2;stroke-linecap:butt;stroke-miterlimit:4;stroke-dasharray:none;stroke-opacity:1"
           d="m 316.44922,145.55469 c -2.22611,0.68274 -11.89866,3.30304 -16.44922,4.15039 -4.675,0.87053 -16.375,2.46801 -26,3.54883 -9.625,1.08082 -23.35,2.24146 -30.5,2.58007 -4.43311,0.20994 -9.0748,0.23171 -14.09961,0.0606 -5.02481,-0.17121 -10.43274,-0.53542 -16.40039,-1.09961 -9.625,-0.90996 -23.575,-2.53917 -31,-3.62109 -7.425,-1.08192 -15.95371,-2.62373 -18.95312,-3.42578 -2.82482,-0.75535 -5.94564,-1.14494 -6.31836,-1.19141 -0.56981,2.38435 -1.03762,4.95881 -1.1875,7.44336 -0.45896,7.60771 0.29552,9.14036 2.96289,16.87891 1.61183,4.67622 5.08015,11.98653 7.61328,16.05078 2.55118,4.09319 6.95269,9.98608 9.66797,12.95703 0.65457,0.71621 1.83318,1.69564 2.77539,2.56836 l 8.50976,1.93359 c 5.18599,1.19378 9.19423,1.60179 13.77344,2.5 1.58823,0.31154 4.75195,1.00195 4.75195,1.00195 1.59764,0.41234 6.5043,1.1586 10.9043,1.65821 4.4,0.49961 10.8125,0.96716 14.25,1.03906 0,0 4.16626,0.11576 6.25,0.13086 1.60871,0.0116 3.21964,0.0534 4.82617,-0.0312 4.86077,-0.25624 8.00933,-0.66582 14.53125,-1.44141 6.52191,-0.7756 9.00542,-1.20446 13.48438,-1.96093 4.15552,-0.70185 12.41601,-2.39063 12.41601,-2.39063 5.45972,-1.11281 11.88446,-2.72817 13.42969,-3.11328 2.12152,-2.17987 4.34336,-4.60509 6.11328,-6.82617 2.96381,-3.71929 7.25779,-10.46614 9.43555,-14.82422 2.18895,-4.38051 4.68262,-10.72463 5.47461,-13.86719 0.80845,-3.20787 1.2476,-7.74365 1.24023,-9.79883 -0.007,-2.06147 -0.45529,-6.75025 -1.25781,-10.15429 -0.0673,-0.28537 -0.16944,-0.46148 -0.24414,-0.75586 z"
           transform="translate(-5,-4.9236342)"
           inkscape:label="inner mouth" />
        <g
           id="g1154"
           inkscape:label="tongue"
           style="display:inline">
          <path
             id="path1091"
             style="display:inline;fill:#cd4f33;fill-opacity:1;stroke:#161f5a;stroke-width:1.75;stroke-linejoin:bevel;stroke-miterlimit:4;stroke-dasharray:none;stroke-opacity:1"
             inkscape:label="tongue"
             d="m 205.5957,207.89118 c 1.59764,0.41234 6.5043,1.1586 10.9043,1.65821 4.4,0.49961 10.8125,0.96716 14.25,1.03906 0,0 4.16626,0.11576 6.25,0.13086 1.60871,0.0116 3.21964,0.0535 4.82617,-0.0312 4.86077,-0.25624 8.00933,-0.66582 14.53125,-1.44141 6.52191,-0.7756 9.00639,-1.20446 13.69404,-1.92438 0.12288,-0.0208 -0.17002,-1.10482 -0.37963,-1.66825 -1.0318,-2.77342 -5.94873,-7.56022 -11.85536,-10.23169 -5.90663,-2.67147 -7.53749,-2.68775 -11.67431,-2.70947 -4.3407,-0.0228 -6.48785,1.29072 -9.39843,1.25981 -3.1646,0.0401 -2.45396,-1.56611 -9.18274,-1.27228 -6.6334,0.28967 -10.0399,1.10004 -13.7544,2.73488 -3.7145,1.63484 -6.80619,4.40378 -8.77344,6.46484 -1.96725,2.06106 -3.38639,5.15825 -3.38639,5.15825 1.70996,0.34403 3.94894,0.83277 3.94894,0.83277 z"
             transform="translate(-5,-4.9236342)"
             sodipodi:nodetypes="csccsscssscssscc" />
          <path
             style="display:inline;fill:#161f5a;fill-opacity:1;stroke:none;stroke-width:0.989167px;stroke-linecap:butt;stroke-linejoin:miter;stroke-opacity:1"
             d="m 231.43628,193.01914 c 0.51147,12.64353 0.51147,12.64353 0.51147,12.64353 l 1.97571,-0.0866 c 0,0 -0.55318,-10.17262 -2.48718,-12.55694 z"
             id="path1149"
             sodipodi:nodetypes="cccc"
             inkscape:label="tongue crease" />
        </g>
      </g>
      <g
         id="g1836"
         inkscape:label="eyes"
         style="display:inline;fill:#ffffff;fill-opacity:1">
        <g
           id="g927"
           inkscape:label="glasses"
           style="display:inline">
          <path
             id="circle1853-3"
             style="display:inline;opacity:0.997;fill:none;fill-opacity:1;stroke:#161f5a;stroke-width:6.5;stroke-linecap:butt;stroke-miterlimit:4;stroke-dasharray:none;stroke-opacity:1"
             inkscape:label="bridge"
             d="m 245.25664,72.942892 c -0.45605,-1.030162 -1.09684,-1.978345 -1.89364,-2.775151 -1.70057,-1.700573 -4.09065,-2.690514 -6.49561,-2.690514 h -0.005 a 1.0802147,1.0802188 0 0 0 -6.8e-4,0 h 3e-5 v 0 c -2.40409,0.0014 -4.79283,0.992075 -6.49228,2.692514 -0.80421,0.804678 -1.44934,1.763573 -1.90585,2.805294"
             transform="translate(-5,-4.9236342)" />
          <circle
             style="display:inline;fill:#ffffff;fill-opacity:1;stroke:#161f5a;stroke-width:7.008;stroke-linecap:butt;stroke-miterlimit:4;stroke-dasharray:none;stroke-opacity:1"
             id="circle1855"
             cx="266.96423"
             cy="67.63401"
             r="26.745979"
             inkscape:label="circle1832" />
          <path
             id="circle1853"
             style="display:inline;fill:#ffffff;fill-opacity:1;stroke:#161f5a;stroke-width:7.01404;stroke-linecap:butt;stroke-miterlimit:4;stroke-dasharray:none;stroke-opacity:1"
             sodipodi:type="inkscape:offset"
             inkscape:radius="3.164566"
             inkscape:original="M 196.88281 43.876953 A 23.75 23.75 0 0 0 173.14648 67.626953 A 23.75 23.75 0 0 0 196.89648 91.376953 A 23.75 23.75 0 0 0 220.64648 67.626953 A 23.75 23.75 0 0 0 196.89648 43.876953 A 23.75 23.75 0 0 0 196.88281 43.876953 z "
             d="m 196.88086,40.712891 c -7.04364,0.0041 -14.04232,2.906635 -19.02148,7.888671 -4.97917,4.982037 -7.87696,11.981755 -7.87696,19.025391 0,7.046217 2.90039,14.048822 7.88281,19.03125 4.98243,4.982428 11.98504,7.882813 19.03125,7.882813 7.04622,0 14.04883,-2.900385 19.03125,-7.882813 4.98243,-4.982428 7.88282,-11.985033 7.88282,-19.03125 0,-7.046217 -2.90039,-14.048822 -7.88282,-19.03125 -4.98242,-4.982428 -11.98503,-7.882812 -19.03125,-7.882812 -0.005,-2e-6 -0.008,-2e-6 -0.0137,0 a 3.1648825,3.1648825 0 0 0 -0.002,0 z"
             transform="matrix(0.99437603,0,0,0.99437979,0.99812489,0.26967983)" />
        </g>
        <g
           id="g923"
           inkscape:label="pupils">
          <circle
             style="display:inline;fill:#161f5a;fill-opacity:1;stroke:none;stroke-width:22.0411;stroke-miterlimit:4;stroke-dasharray:none;stroke-opacity:1"
             id="circle917"
             cx="266.23071"
             cy="66.308296"
             r="4.75" />
          <circle
             style="display:inline;fill:#161f5a;fill-opacity:1;stroke:none;stroke-width:22.0411;stroke-miterlimit:4;stroke-dasharray:none;stroke-opacity:1"
             id="path915"
             cx="198.46167"
             cy="66.333687"
             r="4.75" />
        </g>
      </g>
      <ellipse
         style="display:inline;fill:#000000;fill-opacity:1;stroke:none;stroke-width:2.90565;stroke-linecap:butt;stroke-miterlimit:4;stroke-dasharray:none;stroke-opacity:1"
         id="path1826"
         cx="229.474"
         cy="94.715012"
         rx="43"
         ry="17.694332"
         inkscape:label="nose" />
    </g>
  </g>
</svg>
